<mxfile host="app.diagrams.net" modified="2024-04-02T11:43:44.910Z" agent="Mozilla/5.0 (Windows NT 10.0; Win64; x64) AppleWebKit/537.36 (KHTML, like Gecko) Chrome/123.0.0.0 Safari/537.36" etag="DpOEcdCAGuoa3Bw9Kzn2" version="24.2.1" type="github">
  <diagram name="第 1 页" id="VQlLVVEh_9yDNDtm41Op">
    <mxGraphModel dx="1562" dy="858" grid="1" gridSize="10" guides="1" tooltips="1" connect="1" arrows="1" fold="1" page="1" pageScale="1" pageWidth="827" pageHeight="1169" math="0" shadow="0">
      <root>
        <mxCell id="0" />
        <mxCell id="1" parent="0" />
        <mxCell id="1B1jNuH1V2nCJGsBXYNe-1" value="&lt;font style=&quot;font-size: 17px;&quot;&gt;Create_offset&lt;/font&gt;" style="rounded=1;whiteSpace=wrap;html=1;" vertex="1" parent="1">
          <mxGeometry x="110" y="230" width="120" height="30" as="geometry" />
        </mxCell>
        <mxCell id="1B1jNuH1V2nCJGsBXYNe-2" value="&lt;span style=&quot;font-size: 17px;&quot;&gt;initia_offset&lt;/span&gt;" style="rounded=1;whiteSpace=wrap;html=1;" vertex="1" parent="1">
          <mxGeometry x="30" y="310" width="130" height="30" as="geometry" />
        </mxCell>
        <mxCell id="1B1jNuH1V2nCJGsBXYNe-3" value="&lt;span style=&quot;font-size: 17px;&quot;&gt;offset_pwr&lt;/span&gt;" style="rounded=1;whiteSpace=wrap;html=1;" vertex="1" parent="1">
          <mxGeometry x="30" y="380" width="130" height="30" as="geometry" />
        </mxCell>
        <mxCell id="1B1jNuH1V2nCJGsBXYNe-5" value="&lt;span style=&quot;font-size: 17px;&quot;&gt;initia_offset_orbit&lt;/span&gt;" style="rounded=1;whiteSpace=wrap;html=1;" vertex="1" parent="1">
          <mxGeometry x="190" y="310" width="140" height="30" as="geometry" />
        </mxCell>
        <mxCell id="1B1jNuH1V2nCJGsBXYNe-6" value="&lt;span style=&quot;font-size: 17px;&quot;&gt;offset_slc&lt;/span&gt;" style="rounded=1;whiteSpace=wrap;html=1;" vertex="1" parent="1">
          <mxGeometry x="190" y="380" width="140" height="30" as="geometry" />
        </mxCell>
      </root>
    </mxGraphModel>
  </diagram>
</mxfile>
